<svg viewBox="0 0 1025.026 1064.882" xmlns="http://www.w3.org/2000/svg"><path d="M251.015 1045.333v-68.327h344.37c50.502-.024 96.21-20.528 129.272-53.657L939.3 708.706c10.414-10.377 16.858-24.734 16.858-40.595 0-.27-.002-.538-.006-.806v.04-1.092c.005-.27.007-.59.007-.91 0-31.447-25.494-56.94-56.94-56.94-16.236 0-30.883 6.794-41.256 17.694l-.022.024-245.25 245.25H557.12v-68.327h.5c28.836-.125 52.165-23.53 52.165-52.384 0-2.894-.235-5.734-.686-8.5l.04.3c-5.85-25.733-28.533-44.652-55.635-44.652-.41 0-.82.004-1.23.013h.062H373.32l-49.516-24.507c-23.17-11.763-50.52-18.654-79.48-18.654-42.386 0-81.324 14.76-111.954 39.42l.345-.27c-39.42 32.24-64.383 80.88-64.383 135.352 0 .907.007 1.812.02 2.716v-.136 5.42H.023v-4.554C.01 831.59 0 830.39 0 829.188c0-75.74 34.735-143.37 89.144-187.826l.434-.344c41.912-33.795 95.814-54.247 154.493-54.247 39.968 0 77.718 9.49 111.124 26.335l-1.417-.648 35.12 17.355h162.027c.655-.012 1.427-.02 2.202-.02 54.996 0 101.72 35.416 118.612 84.684l.263.882 136.7-136.473c22.846-23.85 54.95-38.674 90.52-38.674 69.182 0 125.266 56.085 125.266 125.268 0 .465-.003.93-.008 1.392v-.07c.005.35.007.767.007 1.183 0 34.803-14.12 66.308-36.946 89.098L773.034 971.54c-45.45 45.523-108.25 73.71-177.635 73.794h-.016zm303.83-174.007H338.017V803h216.826zM173.577 21.333H294.29c138.807.156 251.29 112.638 251.445 251.43v34.18H424.568c-138.58-.492-250.757-112.83-250.99-251.424v-.023zm300.64 217.28C457.45 153.284 383.304 89.78 294.302 89.66h-49.21c16.774 85.177 90.69 148.593 179.48 148.954h.04zm124.356 111.603H477.407v-34.164c.156-138.807 112.638-251.29 251.43-251.445H850.02V98.77c-.157 138.808-112.64 251.29-251.43 251.446h-.016zm-49.65-68.328h49.65c89.014-.12 163.162-63.622 179.738-147.79l.19-1.164h-49.65c-89.014.12-163.162 63.622-179.738 147.79l-.19 1.164zm-3.19 381.723h-68.327V272.78h68.327z"/></svg>